<svg width="68" height="71" viewBox="0 0 68 71" fill="none" xmlns="http://www.w3.org/2000/svg">
<g filter="url(#filter0_d)">
<path d="M33.9858 5.66666C18.3316 5.66666 5.66663 18.3458 5.66663 34C5.66663 49.6542 18.3316 62.3333 33.9858 62.3333C49.64 62.3333 62.3333 49.6542 62.3333 34C62.3333 18.3458 49.64 5.66666 33.9858 5.66666ZM53.6066 22.6667H45.2483C44.3275 19.125 43.0383 15.725 41.3383 12.58C46.5516 14.365 50.8866 17.9775 53.6066 22.6667ZM34 11.4325C36.3658 14.8325 38.2075 18.615 39.4116 22.6667H28.5883C29.7925 18.615 31.6341 14.8325 34 11.4325ZM12.07 39.6667C11.6025 37.8533 11.3333 35.955 11.3333 34C11.3333 32.045 11.6025 30.1467 12.07 28.3333H21.6325C21.4058 30.1892 21.25 32.0733 21.25 34C21.25 35.9267 21.4058 37.8108 21.6466 39.6667H12.07ZM14.3791 45.3333H22.7375C23.6583 48.875 24.9475 52.275 26.6475 55.4342C21.4341 53.6492 17.0991 50.0225 14.3791 45.3333ZM22.7375 22.6667H14.3791C17.0991 17.9775 21.4341 14.3508 26.6475 12.5658C24.9475 15.725 23.6583 19.125 22.7375 22.6667ZM34 56.5675C31.6483 53.1675 29.8066 49.385 28.5883 45.3333H39.4116C38.1933 49.385 36.3516 53.1675 34 56.5675ZM40.63 39.6667H27.37C27.1008 37.8108 26.9166 35.9267 26.9166 34C26.9166 32.0733 27.1008 30.1892 27.37 28.3333H40.63C40.8991 30.1892 41.0833 32.0733 41.0833 34C41.0833 35.9267 40.8991 37.8108 40.63 39.6667ZM41.3525 55.42C43.0525 52.2608 44.3416 48.875 45.2625 45.3333H53.6208C50.8866 50.0225 46.5516 53.635 41.3525 55.42ZM46.3533 39.6667C46.58 37.8108 46.75 35.9267 46.75 34C46.75 32.0733 46.5941 30.1892 46.3533 28.3333H55.9158C56.3833 30.1467 56.6666 32.045 56.6666 34C56.6666 35.955 56.3975 37.8533 55.9158 39.6667H46.3533Z" fill="#FAFAFA"/>
</g>
<defs>
<filter id="filter0_d" x="-4" y="0" width="76" height="76" filterUnits="userSpaceOnUse" color-interpolation-filters="sRGB">
<feFlood flood-opacity="0" result="BackgroundImageFix"/>
<feColorMatrix in="SourceAlpha" type="matrix" values="0 0 0 0 0 0 0 0 0 0 0 0 0 0 0 0 0 0 127 0" result="hardAlpha"/>
<feOffset dy="4"/>
<feGaussianBlur stdDeviation="2"/>
<feComposite in2="hardAlpha" operator="out"/>
<feColorMatrix type="matrix" values="0 0 0 0 0 0 0 0 0 0 0 0 0 0 0 0 0 0 0.25 0"/>
<feBlend mode="normal" in2="BackgroundImageFix" result="effect1_dropShadow"/>
<feBlend mode="normal" in="SourceGraphic" in2="effect1_dropShadow" result="shape"/>
</filter>
</defs>
</svg>
